<svg width="199" height="62" viewBox="0 0 199 62" fill="none" xmlns="http://www.w3.org/2000/svg">
<path d="M51.4488 36.4021H52.0065V26.1262C52.0065 26.0372 51.9655 25.953 51.8942 25.8996L49.9032 24.3833C49.8295 24.5613 49.7255 24.7214 49.5957 24.8579L51.4488 26.2674V36.4021Z" fill="#63c6a6"/>
<path d="M52.005 40.6953H51.4473V58.2193H52.005V40.6953Z" fill="#63c6a6"/>
<path d="M30.2159 30.0479H31.4096C31.4459 30.0479 31.4809 30.0515 31.5172 30.0527V26.2809C31.5172 26.0306 31.3851 25.7981 31.1723 25.6711L18.6519 18.2178V18.3863C18.6519 18.849 18.4485 19.2654 18.127 19.5478L30.1212 26.6879V30.0539C30.1516 30.0503 30.1844 30.0479 30.2159 30.0479Z" fill="#63c6a6"/>
<path d="M17.1372 58.2133C17.1699 58.2133 17.2038 58.2169 17.2377 58.2181V19.9204C17.2038 19.9228 17.1699 19.9252 17.1372 19.9252H15.9435C15.9084 19.9252 15.8757 19.9228 15.8418 19.9204V58.2193C15.8757 58.2181 15.9073 58.2145 15.9435 58.2145H17.1372V58.2133Z" fill="#63c6a6"/>
<path d="M12.5818 20.435C12.5116 20.4884 12.4707 20.5715 12.4707 20.6616V36.4035H13.0284V20.8028L14.83 19.4325C14.7038 19.2936 14.6009 19.1311 14.5307 18.9531L12.5818 20.435Z" fill="#63c6a6"/>
<path d="M13.0284 40.6953H12.4707V58.2134H13.0284V40.6953Z" fill="#63c6a6"/>
<path d="M45.876 24.2983L30.3264 39.6855C30.1919 39.8196 30.1147 40.0011 30.1147 40.1933V58.2192C30.151 58.2168 30.1861 58.2132 30.2223 58.2132H31.416C31.4476 58.2132 31.4791 58.2168 31.5107 58.218V40.4899L46.8908 25.2712C46.4173 25.1336 46.0373 24.767 45.876 24.2983Z" fill="#63c6a6"/>
<path d="M47.3096 25.3328C47.2874 25.3328 47.2652 25.3292 47.2441 25.3292V58.2179C47.2769 58.2167 47.3108 58.2131 47.3447 58.2131H48.5384C48.5723 58.2131 48.6062 58.2167 48.6401 58.2179V25.3257C48.5957 25.3292 48.5501 25.3328 48.5045 25.3328H47.3096Z" fill="#63c6a6"/>
<path d="M34.775 47.7773H34.2173V58.2134H34.775V47.7773Z" fill="#63c6a6"/>
<path d="M62.5342 20.9916C60.867 16.9517 58.4819 13.3152 55.4492 10.1842C52.4059 7.04361 48.8692 4.57459 44.9362 2.84829C41.4966 1.33793 37.8839 0.456393 34.166 0.214355C34.1754 0.278424 34.1812 0.341307 34.1812 0.407748V1.60844V1.61912C34.1812 1.63336 34.18 1.64522 34.1789 1.65828C37.698 1.89913 41.1189 2.73795 44.375 4.16763C48.1397 5.82156 51.5267 8.18498 54.4402 11.1927C57.3478 14.1932 59.6312 17.6778 61.2294 21.5481C62.8802 25.55 63.7185 29.7797 63.7185 34.121C63.7185 39.2358 62.5693 44.1252 60.3034 48.6515C58.4328 52.3889 55.8163 55.762 52.6736 58.5039C53.1623 58.6439 53.5329 59.0674 53.6007 59.5895C56.8802 56.7254 59.6125 53.204 61.565 49.3017C63.9336 44.5713 65.1332 39.4636 65.1332 34.1198C65.1332 29.5863 64.2587 25.1703 62.5342 20.9916Z" fill="#63c6a6"/>
<path d="M58.1915 29.2573C54.981 15.9571 43.1773 6.46777 29.5229 6.46777C21.6382 6.46777 14.2234 9.58341 8.64778 15.2428C3.07213 20.901 0.00195312 28.4244 0.00195312 36.4258C0.00195312 41.2025 1.13602 45.9531 3.28258 50.1662C5.1345 53.8015 7.7417 57.0536 10.8727 59.6484C10.9148 59.1192 11.2678 58.6791 11.7472 58.5165C8.77522 56.0487 6.30014 52.958 4.54175 49.5065C2.47002 45.4394 1.42013 41.0388 1.42013 36.4258C1.42013 28.8076 4.34299 21.6449 9.65091 16.2584C14.96 10.8707 22.0181 7.90457 29.524 7.90457C42.4244 7.90457 53.5886 16.8006 56.7453 29.3095C56.8622 29.2751 56.9838 29.2561 57.1065 29.2561H58.1915V29.2573Z" fill="#63c6a6"/>
<path d="M35.4683 46.2367V45.0253C35.4683 44.7999 35.2882 44.6172 35.0661 44.6172H33.8724C33.6503 44.6172 33.4702 44.7999 33.4702 45.0253V46.2367C33.4702 46.4621 33.6503 46.6448 33.8724 46.6448H35.0661C35.2882 46.6448 35.4683 46.4621 35.4683 46.2367Z" fill="#191f2c"/>
<path d="M48.9019 24.4217V23.2104C48.9019 22.9861 48.7207 22.8022 48.4997 22.8022H47.306C47.0839 22.8022 46.9038 22.9861 46.9038 23.2104V24.4217C46.9038 24.6472 47.0839 24.8299 47.306 24.8299H48.4997C48.7218 24.8287 48.9019 24.6472 48.9019 24.4217Z" fill="#191f2c"/>
<path d="M30.2163 33.2088H31.41C31.6322 33.2088 31.8122 33.0249 31.8122 32.8007V31.5893C31.8122 31.3639 31.6322 31.1812 31.41 31.1812H30.2163C29.9942 31.1812 29.813 31.3639 29.813 31.5893V32.8007C29.813 33.0249 29.9942 33.2088 30.2163 33.2088Z" fill="#191f2c"/>
<path d="M17.1364 17.3945H15.9427C15.7206 17.3945 15.5405 17.5772 15.5405 17.8027V19.014C15.5405 19.2383 15.7206 19.4222 15.9427 19.4222H17.1364C17.3585 19.4222 17.5374 19.2383 17.5374 19.014V17.8027C17.5374 17.5772 17.3585 17.3945 17.1364 17.3945Z" fill="#191f2c"/>
<path d="M13.3473 37.5356H12.1537C11.9315 37.5356 11.7515 37.7172 11.7515 37.9426V39.154C11.7515 39.3794 11.9315 39.5621 12.1537 39.5621H13.3473C13.5695 39.5621 13.7495 39.3794 13.7495 39.154V37.9426C13.7495 37.7172 13.5695 37.5356 13.3473 37.5356Z" fill="#191f2c"/>
<path d="M17.1364 59.3472H15.9427C15.7206 59.3472 15.5405 59.5299 15.5405 59.7553V60.9667C15.5405 61.1909 15.7206 61.3736 15.9427 61.3736H17.1364C17.3585 61.3736 17.5374 61.1909 17.5374 60.9667V59.7553C17.5374 59.5299 17.3585 59.3472 17.1364 59.3472Z" fill="#191f2c"/>
<path d="M31.4177 59.3472H30.224C30.0018 59.3472 29.8218 59.5299 29.8218 59.7553V60.9667C29.8218 61.1909 30.0018 61.3736 30.224 61.3736H31.4177C31.6398 61.3736 31.8198 61.1909 31.8198 60.9667V59.7553C31.8187 59.5299 31.6386 59.3472 31.4177 59.3472Z" fill="#191f2c"/>
<path d="M35.0939 59.3472H33.9002C33.6781 59.3472 33.498 59.5299 33.498 59.7553V60.9667C33.498 61.1909 33.6781 61.3736 33.9002 61.3736H35.0939C35.3149 61.3736 35.4961 61.1909 35.4961 60.9667V59.7553C35.4961 59.5299 35.3149 59.3472 35.0939 59.3472Z" fill="#191f2c"/>
<path d="M48.5388 59.3472H47.3451C47.1229 59.3472 46.9429 59.5299 46.9429 59.7553V60.9667C46.9429 61.1909 47.1229 61.3736 47.3451 61.3736H48.5388C48.7609 61.3736 48.9409 61.1909 48.9409 60.9667V59.7553C48.9409 59.5299 48.7609 59.3472 48.5388 59.3472Z" fill="#191f2c"/>
<path d="M33.2169 0.164429C33.1421 0.0659534 33.0263 -0.000488281 32.8942 -0.000488281H31.7005C31.4796 -0.000488281 31.2983 0.182226 31.2983 0.407653V1.61903C31.2983 1.84564 31.4796 2.02836 31.7005 2.02836H32.8942C33.1164 2.02836 33.2964 1.84564 33.2964 1.61903V1.60835V0.407653C33.2976 0.316296 33.266 0.232057 33.2169 0.164429Z" fill="#191f2c"/>
<path d="M11.7515 59.7556V60.3524V60.9682C11.7515 61.1924 11.9315 61.3751 12.1537 61.3751H13.3473C13.5695 61.3751 13.7495 61.1924 13.7495 60.9682V59.7568C13.7495 59.5314 13.5695 59.3486 13.3473 59.3486H12.792H12.1525C11.9315 59.3475 11.7515 59.5302 11.7515 59.7556Z" fill="#191f2c"/>
<path d="M52.3267 59.3521H51.6602H51.133C50.9108 59.3521 50.7319 59.5348 50.7319 59.7602V60.9716C50.7319 61.197 50.9108 61.3797 51.133 61.3797H52.3267C52.55 61.3797 52.7288 61.197 52.7288 60.9716V60.3261V59.7602C52.7277 59.5348 52.5488 59.3521 52.3267 59.3521Z" fill="#191f2c"/>
<path d="M52.7254 39.154V37.9426C52.7254 37.7172 52.5465 37.5356 52.3232 37.5356H51.1295C50.9074 37.5356 50.7285 37.7172 50.7285 37.9426V39.154C50.7285 39.3794 50.9074 39.5621 51.1295 39.5621H52.3232C52.5465 39.5621 52.7254 39.3794 52.7254 39.154Z" fill="#191f2c"/>
<path d="M58.3005 32.1837C58.5226 32.1837 58.7027 32.0022 58.7027 31.7756V30.5642C58.7027 30.3743 58.574 30.2166 58.401 30.1715C58.3694 30.1643 58.3355 30.1572 58.3005 30.1572H57.1068C57.053 30.1572 57.0016 30.1679 56.9536 30.1881C56.8086 30.2486 56.7046 30.3945 56.7046 30.5642V31.7756C56.7046 32.0022 56.8846 32.1837 57.1068 32.1837H58.3005Z" fill="#191f2c"/>
<path d="M102.582 23.0349V38.347H100.033V28.2416L94.2431 36.6109L88.5433 28.3015V38.3454H85.9746V23.0332H87.7395L94.2661 32.4862L100.837 23.0332H102.582V23.0349Z" fill="#191f2c"/>
<path d="M120.125 35.9387H112.727L111.766 38.3473H108.951L115.612 23.0352H117.243L123.927 38.3473H121.087L120.125 35.9387ZM119.323 33.8764L116.437 26.6306L113.555 33.8764H119.323Z" fill="#191f2c"/>
<path d="M142.37 27.4459C142.37 29.9161 140.248 31.7937 137.543 31.7937H132.76V38.3454H130.189V23.0332H137.543C140.248 23.0349 142.37 25.0173 142.37 27.4459ZM139.844 27.4659C139.844 26.0976 138.683 25.2004 137.208 25.2004H132.76V29.713H137.208C138.684 29.713 139.844 28.8741 139.844 27.4659Z" fill="#191f2c"/>
<path d="M161.188 27.4459C161.188 29.9161 159.064 31.7937 156.359 31.7937H151.576V38.3454H149.006V23.0332H156.359C159.064 23.0349 161.188 25.0173 161.188 27.4459ZM158.662 27.4659C158.662 26.0976 157.499 25.2004 156.025 25.2004H151.576V29.713H156.025C157.499 29.713 158.662 28.8741 158.662 27.4659Z" fill="#191f2c"/>
<path d="M170.529 25.2004V29.6098H176.699V31.7721H170.529V36.1831H177.638V38.3454H167.958V23.0332H177.638V25.1988H170.529V25.2004Z" fill="#191f2c"/>
<path d="M184.591 23.0352H189.553C194.514 23.0352 198 26.4658 198 30.6904C198 34.9167 194.513 38.3457 189.553 38.3457H184.591V23.0352ZM189.485 36.1435C192.95 36.1435 195.364 33.8148 195.364 30.6921C195.364 27.5694 192.95 25.2423 189.485 25.2423H187.161V36.1435H189.485Z" fill="#191f2c"/>
</svg>
